<svg width="28" height="28" viewBox="0 0 28 28" fill="none" xmlns="http://www.w3.org/2000/svg">
<path d="M17.5002 6.91406C17.8604 6.91415 18.1525 7.06617 18.4153 7.2666C18.6667 7.4584 18.9445 7.73721 19.2678 8.06055L19.9397 8.73242L20.386 9.18555C20.5199 9.32658 20.6378 9.4584 20.7336 9.58398C20.9342 9.8469 21.0862 10.1396 21.0862 10.5C21.0862 10.8604 20.9342 11.1531 20.7336 11.416C20.6378 11.5416 20.5199 11.6734 20.386 11.8145L19.9397 12.2676L11.2454 20.9619C11.1135 21.0938 10.9956 21.2146 10.8645 21.3125L10.7278 21.4023C10.6324 21.4564 10.5319 21.4961 10.425 21.5293L10.0842 21.6191L6.76294 22.4492C6.59875 22.4903 6.42027 22.5362 6.27173 22.5508C6.13631 22.564 5.91921 22.5637 5.72681 22.4229L5.64673 22.3535C5.43747 22.1443 5.43339 21.8833 5.44849 21.7285C5.46301 21.5801 5.50902 21.4014 5.55005 21.2373L6.38013 17.916L6.47095 17.5752C6.50415 17.4683 6.54386 17.3679 6.5979 17.2725L6.68774 17.1357C6.78561 17.0046 6.90644 16.8868 7.03833 16.7549L15.7317 8.06055L16.1848 7.61426C16.326 7.48011 16.4585 7.36253 16.5842 7.2666C16.8471 7.06603 17.1399 6.91406 17.5002 6.91406Z" stroke="#0A639D"/>
<path d="M14.5833 8.75002L18.0833 6.41669L21.5833 9.91669L19.2499 13.4167L14.5833 8.75002Z" fill="#0A639D"/>
</svg>
