<svg width="14" height="14" viewBox="0 0 14 14" fill="none" xmlns="http://www.w3.org/2000/svg">
<path d="M10.2271 6.14129C10.3972 5.96967 10.3959 5.69267 10.2243 5.52258C10.0527 5.35249 9.7757 5.35372 9.60561 5.52534L8.58634 6.55374C8.17268 6.97111 7.88799 7.25741 7.64676 7.45113C7.41244 7.63932 7.26193 7.70387 7.12714 7.72106C7.0425 7.73184 6.95685 7.73184 6.87221 7.72106C6.73742 7.70387 6.58691 7.63932 6.35259 7.45113C6.11136 7.25741 5.82667 6.97111 5.41301 6.55374L4.39374 5.52534C4.22365 5.35372 3.94665 5.35249 3.77503 5.52258C3.60342 5.69267 3.60218 5.96967 3.77227 6.14129L4.8099 7.18821C5.2007 7.58253 5.5201 7.90481 5.80469 8.13336C6.10063 8.37103 6.40101 8.54307 6.76158 8.58903C6.91968 8.60918 7.07967 8.60918 7.23777 8.58903C7.59834 8.54307 7.89872 8.37103 8.19466 8.13336C8.47925 7.90481 8.79865 7.58254 9.18945 7.18822L10.2271 6.14129Z" fill="white"/>
</svg>
