<svg width="32" height="32" viewBox="0 0 32 32" fill="none" xmlns="http://www.w3.org/2000/svg">
<path d="M22.667 24.0001C22.667 24.0001 26.667 13.3334 26.667 8.00008C26.667 2.66675 24.0003 2.66675 24.0003 2.66675H22.667C22.667 2.66675 21.3337 2.66675 21.3337 4.00008C21.3337 5.33341 22.667 5.33341 22.667 8.00008C22.667 10.6667 18.667 13.3334 18.667 17.3334C18.667 21.3334 22.667 24.0001 22.667 24.0001ZM16.0003 22.6667C17.3337 22.6667 21.3337 26.0001 21.3337 26.0001C21.7337 26.2667 21.6003 26.6667 21.3337 27.0667C21.3337 27.0667 20.0003 29.4667 17.3337 29.4667H9.33366C7.86699 29.4667 6.66699 28.2667 6.66699 26.8001V25.4667C6.66699 24.0001 7.86699 22.8001 9.33366 22.8001H16.0003V22.6667Z" fill="#388B68"/>
</svg>
