<svg width="17" height="17" viewBox="0 0 17 17" fill="none" xmlns="http://www.w3.org/2000/svg">
<path fill-rule="evenodd" clip-rule="evenodd" d="M4.24967 1.59375C3.17387 1.59375 2.30176 2.46586 2.30176 3.54167C2.30176 4.61747 3.17387 5.48958 4.24967 5.48958C5.32548 5.48958 6.19759 4.61747 6.19759 3.54167C6.19759 2.46586 5.32548 1.59375 4.24967 1.59375ZM3.36426 3.54167C3.36426 3.05266 3.76067 2.65625 4.24967 2.65625C4.73868 2.65625 5.13509 3.05266 5.13509 3.54167C5.13509 4.03067 4.73868 4.42708 4.24967 4.42708C3.76067 4.42708 3.36426 4.03067 3.36426 3.54167Z" fill="#3E3E3E"/>
<path d="M8.49967 3.01042C8.20627 3.01042 7.96842 3.24827 7.96842 3.54167C7.96842 3.83507 8.20627 4.07292 8.49967 4.07292L14.1663 4.07292C14.4597 4.07292 14.6976 3.83507 14.6976 3.54167C14.6976 3.24827 14.4597 3.01042 14.1663 3.01042L8.49967 3.01042Z" fill="#3E3E3E"/>
<path fill-rule="evenodd" clip-rule="evenodd" d="M12.7497 6.55208C11.6739 6.55208 10.8018 7.42419 10.8018 8.5C10.8018 9.5758 11.6739 10.4479 12.7497 10.4479C13.8255 10.4479 14.6976 9.5758 14.6976 8.5C14.6976 7.42419 13.8255 6.55208 12.7497 6.55208ZM11.8643 8.5C11.8643 8.011 12.2607 7.61458 12.7497 7.61458C13.2387 7.61458 13.6351 8.011 13.6351 8.5C13.6351 8.989 13.2387 9.38542 12.7497 9.38542C12.2607 9.38542 11.8643 8.989 11.8643 8.5Z" fill="#3E3E3E"/>
<path d="M2.83301 7.96875C2.53961 7.96875 2.30176 8.2066 2.30176 8.5C2.30176 8.7934 2.53961 9.03125 2.83301 9.03125L8.49967 9.03125C8.79308 9.03125 9.03092 8.7934 9.03092 8.5C9.03092 8.2066 8.79308 7.96875 8.49967 7.96875L2.83301 7.96875Z" fill="#3E3E3E"/>
<path fill-rule="evenodd" clip-rule="evenodd" d="M4.24967 11.5104C3.17387 11.5104 2.30176 12.3825 2.30176 13.4583C2.30176 14.5341 3.17387 15.4062 4.24967 15.4062C5.32548 15.4062 6.19759 14.5341 6.19759 13.4583C6.19759 12.3825 5.32548 11.5104 4.24967 11.5104ZM3.36426 13.4583C3.36426 12.9693 3.76067 12.5729 4.24967 12.5729C4.73868 12.5729 5.13509 12.9693 5.13509 13.4583C5.13509 13.9473 4.73868 14.3438 4.24967 14.3438C3.76067 14.3438 3.36426 13.9473 3.36426 13.4583Z" fill="#3E3E3E"/>
<path d="M8.49967 12.9271C8.20627 12.9271 7.96842 13.1649 7.96842 13.4583C7.96842 13.7517 8.20627 13.9896 8.49967 13.9896H14.1663C14.4597 13.9896 14.6976 13.7517 14.6976 13.4583C14.6976 13.1649 14.4597 12.9271 14.1663 12.9271H8.49967Z" fill="#3E3E3E"/>
</svg>
