<svg width="329" height="22" viewBox="0 0 329 22" fill="none" xmlns="http://www.w3.org/2000/svg">
<path d="M1 10.1667H308" stroke="#ECECEC" stroke-width="2" stroke-linecap="round"/>
<path d="M68.3333 10.6667C68.3333 16.5577 73.109 21.3334 79 21.3334C84.891 21.3334 89.6667 16.5577 89.6667 10.6667C89.6667 4.77565 84.891 2.05422e-05 79 2.00272e-05C73.109 1.95121e-05 68.3333 4.77565 68.3333 10.6667ZM230.333 10.6667C230.333 16.5577 235.109 21.3334 241 21.3334C246.891 21.3334 251.667 16.5577 251.667 10.6667C251.667 4.77566 246.891 3.47047e-05 241 3.41897e-05C235.109 3.36746e-05 230.333 4.77566 230.333 10.6667ZM79 10.6667L79 12.6667L241 12.6667L241 10.6667L241 8.6667L79 8.66669L79 10.6667Z" fill="#347EAE"/>
</svg>
