<svg width="14" height="14" viewBox="0 0 14 14" fill="none" xmlns="http://www.w3.org/2000/svg">
<path d="M12.0024 4.3634C12.1571 4.17778 12.1321 3.90191 11.9464 3.74723C11.7608 3.59254 11.4849 3.61762 11.3303 3.80324L8.18569 7.57672C7.55404 8.3347 7.10969 8.86627 6.72429 9.2143C6.34787 9.5542 6.08809 9.66224 5.83302 9.66224C5.57795 9.66224 5.31817 9.5542 4.94175 9.2143C4.55634 8.86627 4.112 8.3347 3.48034 7.57671L2.66912 6.60324C2.51443 6.41762 2.23856 6.39254 2.05294 6.54723C1.86732 6.70191 1.84224 6.97778 1.99692 7.1634L2.83066 8.16389C3.43457 8.8886 3.9182 9.46898 4.35533 9.86371C4.80686 10.2714 5.26843 10.5372 5.83302 10.5372C6.39761 10.5372 6.85917 10.2714 7.31071 9.86371C7.74783 9.46898 8.23146 8.88861 8.83536 8.16391L12.0024 4.3634Z" fill="#0A639D"/>
</svg>
