<svg width="68" height="68" viewBox="0 0 68 68" fill="none" xmlns="http://www.w3.org/2000/svg">
<path d="M48.167 51C48.167 51 56.667 28.3333 56.667 17C56.667 5.66663 51.0003 5.66663 51.0003 5.66663H48.167C48.167 5.66663 45.3337 5.66663 45.3337 8.49996C45.3337 11.3333 48.167 11.3333 48.167 17C48.167 22.6666 39.667 28.3333 39.667 36.8333C39.667 45.3333 48.167 51 48.167 51ZM34.0003 48.1666C36.8337 48.1666 45.3337 55.25 45.3337 55.25C46.1837 55.8166 45.9003 56.6666 45.3337 57.5166C45.3337 57.5166 42.5003 62.6166 36.8337 62.6166H19.8337C16.717 62.6166 14.167 60.0666 14.167 56.95V54.1166C14.167 51 16.717 48.45 19.8337 48.45H34.0003V48.1666Z" fill="#B0B0B0"/>
</svg>
