<svg width="28" height="28" viewBox="0 0 28 28" fill="none" xmlns="http://www.w3.org/2000/svg">
<path d="M12.2829 7.54515C11.9397 7.20497 11.3857 7.20744 11.0455 7.55067C10.7053 7.8939 10.7078 8.44792 11.051 8.7881L13.1078 10.8266C13.9426 11.654 14.5152 12.2233 14.9026 12.7058C15.279 13.1744 15.4081 13.4754 15.4425 13.745C15.4641 13.9143 15.4641 14.0856 15.4425 14.2549C15.4081 14.5245 15.279 14.8255 14.9026 15.2941C14.5152 15.7766 13.9426 16.346 13.1078 17.1733L11.051 19.2118C10.7078 19.552 10.7053 20.106 11.0455 20.4492C11.3857 20.7925 11.9397 20.7949 12.2829 20.4548L14.3768 18.3795C15.1654 17.5979 15.81 16.9591 16.2671 16.3899C16.7424 15.798 17.0865 15.1973 17.1784 14.4761C17.2187 14.16 17.2187 13.84 17.1784 13.5238C17.0865 12.8026 16.7424 12.2019 16.2671 11.61C15.81 11.0408 15.1654 10.402 14.3768 9.6204L12.2829 7.54515Z" fill="white"/>
</svg>
