<svg width="32" height="32" viewBox="0 0 32 32" fill="none" xmlns="http://www.w3.org/2000/svg">
<path d="M22.667 24C22.667 24 26.667 13.3333 26.667 7.99996C26.667 2.66663 24.0003 2.66663 24.0003 2.66663H22.667C22.667 2.66663 21.3337 2.66663 21.3337 3.99996C21.3337 5.33329 22.667 5.33329 22.667 7.99996C22.667 10.6666 18.667 13.3333 18.667 17.3333C18.667 21.3333 22.667 24 22.667 24ZM16.0003 22.6666C17.3337 22.6666 21.3337 26 21.3337 26C21.7337 26.2666 21.6003 26.6666 21.3337 27.0666C21.3337 27.0666 20.0003 29.4666 17.3337 29.4666H9.33366C7.86699 29.4666 6.66699 28.2666 6.66699 26.8V25.4666C6.66699 24 7.86699 22.8 9.33366 22.8H16.0003V22.6666Z" fill="#388B68"/>
</svg>
