<svg width="28" height="28" viewBox="0 0 28 28" fill="none" xmlns="http://www.w3.org/2000/svg">
<path d="M12.2829 7.54521C11.9397 7.20503 11.3857 7.20751 11.0455 7.55074C10.7053 7.89397 10.7078 8.44798 11.051 8.78816L13.1078 10.8267C13.9426 11.654 14.5152 12.2234 14.9026 12.7058C15.279 13.1745 15.4081 13.4755 15.4425 13.7451C15.4641 13.9144 15.4641 14.0857 15.4425 14.2549C15.4081 14.5245 15.279 14.8256 14.9026 15.2942C14.5152 15.7766 13.9426 16.346 13.1078 17.1734L11.051 19.2119C10.7078 19.5521 10.7053 20.1061 11.0455 20.4493C11.3857 20.7925 11.9397 20.795 12.2829 20.4548L14.3768 18.3796C15.1654 17.598 15.81 16.9592 16.2671 16.39C16.7424 15.7981 17.0865 15.1973 17.1784 14.4762C17.2187 14.16 17.2187 13.84 17.1784 13.5238C17.0865 12.8027 16.7424 12.2019 16.2671 11.6101C15.81 11.0409 15.1654 10.4021 14.3768 9.62046L12.2829 7.54521Z" fill="white"/>
</svg>
