<svg width="68" height="68" viewBox="0 0 68 68" fill="none" xmlns="http://www.w3.org/2000/svg">
<path d="M48.167 51C48.167 51 56.667 28.3334 56.667 17C56.667 5.66669 51.0003 5.66669 51.0003 5.66669H48.167C48.167 5.66669 45.3337 5.66669 45.3337 8.50002C45.3337 11.3334 48.167 11.3334 48.167 17C48.167 22.6667 39.667 28.3334 39.667 36.8334C39.667 45.3334 48.167 51 48.167 51ZM34.0003 48.1667C36.8337 48.1667 45.3337 55.25 45.3337 55.25C46.1837 55.8167 45.9003 56.6667 45.3337 57.5167C45.3337 57.5167 42.5003 62.6167 36.8337 62.6167H19.8337C16.717 62.6167 14.167 60.0667 14.167 56.95V54.1167C14.167 51 16.717 48.45 19.8337 48.45H34.0003V48.1667Z" fill="#DF7A80"/>
</svg>
