<svg width="16" height="16" viewBox="0 0 16 16" fill="none" xmlns="http://www.w3.org/2000/svg">
<g clip-path="url(#clip0_0_45)">
<path d="M8.74968 5.49998C8.74968 5.08577 8.41389 4.74998 7.99968 4.74998C7.58546 4.74998 7.24968 5.08577 7.24968 5.49998H8.74968ZM6.12064 9.73303C5.83649 10.0344 5.85046 10.5091 6.15184 10.7932C6.45323 11.0774 6.9279 11.0634 7.21205 10.762L6.12064 9.73303ZM1.53115 1.58099C1.20771 1.83975 1.15527 2.31172 1.41402 2.63517C1.67278 2.95861 2.14475 3.01106 2.4682 2.7523L1.53115 1.58099ZM4.13486 1.41896C4.45831 1.16021 4.51075 0.688238 4.25199 0.364792C3.99324 0.0413452 3.52127 -0.0110958 3.19782 0.247661L4.13486 1.41896ZM13.5312 2.7523C13.8546 3.01106 14.3266 2.95861 14.5853 2.63517C14.8441 2.31172 14.7916 1.83975 14.4682 1.58099L13.5312 2.7523ZM12.8015 0.247661C12.4781 -0.0110958 12.0061 0.0413452 11.7474 0.364792C11.4886 0.688238 11.541 1.16021 11.8645 1.41896L12.8015 0.247661ZM7.99968 5.49998H7.24968V8.03916H7.99968H8.74968V5.49998H7.99968ZM6.66634 10.2475L7.21205 10.762L8.00059 9.92564L7.45489 9.41115L6.90919 8.89665L6.12064 9.73303L6.66634 10.2475ZM1.99967 2.16665L2.4682 2.7523L4.13486 1.41896L3.66634 0.833313L3.19782 0.247661L1.53115 1.58099L1.99967 2.16665ZM13.9997 2.16665L14.4682 1.58099L12.8015 0.247661L12.333 0.833313L11.8645 1.41896L13.5312 2.7523L13.9997 2.16665ZM14.6663 8.16665H13.9163C13.9163 11.4343 11.2674 14.0833 7.99967 14.0833V14.8333V15.5833C12.0958 15.5833 15.4163 12.2628 15.4163 8.16665H14.6663ZM7.99967 14.8333V14.0833C4.73199 14.0833 2.08301 11.4343 2.08301 8.16665H1.33301H0.583008C0.583008 12.2628 3.90356 15.5833 7.99967 15.5833V14.8333ZM1.33301 8.16665H2.08301C2.08301 4.89896 4.73199 2.24998 7.99967 2.24998V1.49998V0.749978C3.90356 0.749978 0.583008 4.07053 0.583008 8.16665H1.33301ZM7.99967 1.49998V2.24998C11.2674 2.24998 13.9163 4.89896 13.9163 8.16665H14.6663H15.4163C15.4163 4.07053 12.0958 0.749978 7.99967 0.749978V1.49998ZM7.99968 8.03916H7.24968C7.24968 8.35795 7.12788 8.66469 6.90919 8.89665L7.45489 9.41115L8.00059 9.92564C8.48171 9.41534 8.74968 8.7405 8.74968 8.03916H7.99968Z" fill="#8F8F8F"/>
</g>
<defs>
<clipPath id="clip0_0_45">
<rect width="16" height="16" fill="white"/>
</clipPath>
</defs>
</svg>
