<svg width="28" height="28" viewBox="0 0 28 28" fill="none" xmlns="http://www.w3.org/2000/svg">
<path d="M10.8906 5.60267C11.3679 5.52707 11.6936 5.07886 11.618 4.60156C11.5424 4.12426 11.0942 3.79862 10.6169 3.87421C7.74644 4.32885 5.49519 6.58009 5.04056 9.45054C4.96496 9.92784 5.29061 10.3761 5.7679 10.4516C6.2452 10.5272 6.69342 10.2016 6.76901 9.7243C7.10505 7.60267 8.76901 5.9387 10.8906 5.60267Z" fill="white"/>
<path fill-rule="evenodd" clip-rule="evenodd" d="M12.833 0.291626C6.55077 0.291626 1.45801 5.38439 1.45801 11.6666C1.45801 17.9489 6.55077 23.0416 12.833 23.0416C19.1152 23.0416 24.208 17.9489 24.208 11.6666C24.208 5.38439 19.1152 0.291626 12.833 0.291626ZM3.20801 11.6666C3.20801 6.35089 7.51727 2.04163 12.833 2.04163C18.1487 2.04163 22.458 6.35089 22.458 11.6666C22.458 16.9824 18.1487 21.2916 12.833 21.2916C7.51727 21.2916 3.20801 16.9824 3.20801 11.6666Z" fill="white"/>
<path d="M22.7851 20.3814C22.4434 20.0396 21.8894 20.0396 21.5477 20.3813C21.206 20.7231 21.206 21.2771 21.5477 21.6188L26.2142 26.2854C26.5559 26.6271 27.11 26.6271 27.4517 26.2854C27.7934 25.9437 27.7934 25.3897 27.4517 25.048L22.7851 20.3814Z" fill="white"/>
</svg>
