<svg width="16" height="16" viewBox="0 0 16 16" fill="none" xmlns="http://www.w3.org/2000/svg">
<path d="M5.75 9C5.8163 9 5.87987 9.02636 5.92676 9.07324C5.97364 9.12013 6 9.1837 6 9.25C6 9.29936 5.98538 9.34761 5.95801 9.38867C5.93054 9.42978 5.89138 9.46252 5.8457 9.48145C5.82287 9.49089 5.79874 9.49664 5.77441 9.49902L5.70117 9.49512C5.6527 9.48546 5.60819 9.46171 5.57324 9.42676C5.5383 9.39181 5.51454 9.3473 5.50488 9.29883C5.49525 9.25038 5.49968 9.19994 5.51855 9.1543C5.53748 9.10862 5.57021 9.06946 5.61133 9.04199C5.65239 9.01462 5.70064 9 5.75 9ZM10.25 9C10.3163 9 10.3799 9.02636 10.4268 9.07324C10.4736 9.12013 10.5 9.1837 10.5 9.25C10.5 9.29936 10.4854 9.34761 10.458 9.38867C10.4305 9.42978 10.3914 9.46252 10.3457 9.48145C10.3229 9.49089 10.2987 9.49664 10.2744 9.49902L10.2012 9.49512C10.1527 9.48546 10.1082 9.4617 10.0732 9.42676C10.0383 9.39181 10.0145 9.3473 10.0049 9.29883C9.99525 9.25039 9.99968 9.19994 10.0186 9.1543C10.0375 9.10862 10.0702 9.06946 10.1113 9.04199C10.1524 9.01462 10.2006 9 10.25 9Z" fill="#5F5F5F" stroke="#8F8F8F"/>
</svg>
