<svg width="30" height="21" viewBox="0 0 30 21" fill="none" xmlns="http://www.w3.org/2000/svg">
<path fill-rule="evenodd" clip-rule="evenodd" d="M24.4503 5.44235e-08C25.0777 -0.000102277 25.6967 0.144105 26.2595 0.421469C26.8222 0.698834 27.3137 1.10192 27.6958 1.59956L27.8539 1.82184L29.3131 4.0105C29.7043 4.59716 29.9373 5.275 29.9894 5.97825L30.0003 6.28098V15.0002C30.0006 15.6882 29.7407 16.351 29.2728 16.8555C28.805 17.36 28.1637 17.669 27.4776 17.7207L27.273 17.7275H27.0412C26.7663 18.5051 26.2628 19.1816 25.5967 19.6681C24.9307 20.1546 24.1331 20.4285 23.3087 20.4539C22.4842 20.4793 21.6714 20.2549 20.9767 19.8102C20.282 19.3655 19.7379 18.7213 19.4157 17.962L19.3229 17.7275H10.676C10.4009 18.5047 9.89735 19.1807 9.23143 19.6669C8.56552 20.1531 7.76828 20.4268 6.94415 20.4522C6.12003 20.4775 5.30747 20.2533 4.61293 19.809C3.91839 19.3647 3.37427 18.7209 3.05185 17.962L2.95912 17.7275H2.7273C2.03924 17.7277 1.37652 17.4678 0.87199 17C0.367464 16.5321 0.0584232 15.8908 0.00681826 15.2047L6.35522e-09 15.0002V4.09095C-5.81212e-05 3.04747 0.39863 2.04341 1.11449 1.2842C1.83035 0.524996 2.80927 0.068036 3.85095 0.00681847L4.09095 5.44235e-08H24.4503ZM23.1821 15.0002C22.8204 15.0002 22.4736 15.1438 22.2178 15.3996C21.9621 15.6553 21.8184 16.0022 21.8184 16.3638C21.8184 16.7255 21.9621 17.0723 22.2178 17.3281C22.4736 17.5838 22.8204 17.7275 23.1821 17.7275C23.5437 17.7275 23.8906 17.5838 24.1463 17.3281C24.4021 17.0723 24.5457 16.7255 24.5457 16.3638C24.5457 16.0022 24.4021 15.6553 24.1463 15.3996C23.8906 15.1438 23.5437 15.0002 23.1821 15.0002ZM6.81826 15.0002C6.45659 15.0002 6.10974 15.1438 5.85401 15.3996C5.59828 15.6553 5.45461 16.0022 5.45461 16.3638C5.45461 16.7255 5.59828 17.0723 5.85401 17.3281C6.10974 17.5838 6.45659 17.7275 6.81826 17.7275C7.17992 17.7275 7.52677 17.5838 7.7825 17.3281C8.03824 17.0723 8.18191 16.7255 8.18191 16.3638C8.18191 16.0022 8.03824 15.6553 7.7825 15.3996C7.52677 15.1438 7.17992 15.0002 6.81826 15.0002ZM20.8202 9.54556H2.7273V15.0002H2.95912C3.24086 14.2017 3.76332 13.5103 4.4545 13.0212C5.14568 12.5322 5.97155 12.2695 6.81826 12.2695C7.66497 12.2695 8.49083 12.5322 9.18201 13.0212C9.87319 13.5103 10.3957 14.2017 10.6774 15.0002H19.3229C19.6047 14.2017 20.1271 13.5103 20.8183 13.0212C21.5095 12.5322 22.3354 12.2695 23.1821 12.2695C24.0288 12.2695 24.8546 12.5322 25.5458 13.0212C26.237 13.5103 26.7595 14.2017 27.0412 15.0002H27.273V10.9092H23.1821C22.7033 10.9092 22.2331 10.7832 21.8185 10.5438C21.4039 10.3044 21.0596 9.96015 20.8202 9.54556ZM24.4503 2.7273H23.1821V8.18191H27.273V6.28098C27.2731 6.01161 27.1934 5.74826 27.0439 5.52415L25.5848 3.33413C25.4603 3.14742 25.2915 2.99435 25.0936 2.88849C24.8957 2.78264 24.6747 2.72727 24.4503 2.7273ZM6.81826 2.7273H4.09095C3.75695 2.72735 3.43458 2.84997 3.18498 3.07192C2.93539 3.29387 2.77593 3.5997 2.73685 3.93141L2.7273 4.09095V6.81826H6.81826V2.7273ZM13.6365 2.7273H9.54556V6.81826H13.6365V2.7273ZM20.4548 2.7273H16.3638V6.81826H20.4548V2.7273Z" fill="#388B68"/>
</svg>
