<svg width="30" height="20" viewBox="0 0 30 20" fill="none" xmlns="http://www.w3.org/2000/svg">
<path fill-rule="evenodd" clip-rule="evenodd" d="M23.9055 5.32109e-08C24.5189 -9.99979e-05 25.1242 0.140894 25.6744 0.412078C26.2246 0.683263 26.7051 1.07737 27.0787 1.56392L27.2333 1.78125L28.6599 3.92114C29.0425 4.49473 29.2703 5.15747 29.3212 5.84505L29.3319 6.14103V14.666C29.3321 15.3387 29.078 15.9866 28.6206 16.4799C28.1632 16.9732 27.5362 17.2754 26.8654 17.3258L26.6654 17.3325H26.4387C26.1699 18.0928 25.6776 18.7542 25.0264 19.2299C24.3752 19.7056 23.5954 19.9734 22.7894 19.9982C21.9833 20.023 21.1885 19.8036 20.5093 19.3688C19.8301 18.9341 19.2981 18.3042 18.9831 17.5618L18.8924 17.3325H10.4382C10.1691 18.0924 9.67683 18.7534 9.02575 19.2287C8.37467 19.7041 7.59519 19.9717 6.78943 19.9965C5.98367 20.0212 5.18921 19.8021 4.51015 19.3676C3.83109 18.9332 3.29909 18.3038 2.98385 17.5618L2.89319 17.3325H2.66654C1.9938 17.3327 1.34585 17.0786 0.852561 16.6212C0.359277 16.1638 0.0571215 15.5368 0.00666634 14.8659L6.21362e-09 14.666V3.9998C-5.68262e-05 2.97957 0.389748 1.99788 1.08966 1.25559C1.78957 0.513299 2.74668 0.0665201 3.76515 0.00666655L3.9998 5.32109e-08H23.9055ZM22.6656 14.666C22.312 14.666 21.9728 14.8064 21.7228 15.0565C21.4728 15.3065 21.3323 15.6456 21.3323 15.9992C21.3323 16.3528 21.4728 16.6919 21.7228 16.942C21.9728 17.192 22.312 17.3325 22.6656 17.3325C23.0192 17.3325 23.3583 17.192 23.6083 16.942C23.8584 16.6919 23.9988 16.3528 23.9988 15.9992C23.9988 15.6456 23.8584 15.3065 23.6083 15.0565C23.3583 14.8064 23.0192 14.666 22.6656 14.666ZM6.66634 14.666C6.31274 14.666 5.97361 14.8064 5.72358 15.0565C5.47354 15.3065 5.33307 15.6456 5.33307 15.9992C5.33307 16.3528 5.47354 16.6919 5.72358 16.942C5.97361 17.192 6.31274 17.3325 6.66634 17.3325C7.01995 17.3325 7.35907 17.192 7.6091 16.942C7.85914 16.6919 7.99961 16.3528 7.99961 15.9992C7.99961 15.6456 7.85914 15.3065 7.6091 15.0565C7.35907 14.8064 7.01995 14.666 6.66634 14.666ZM20.3563 9.33288H2.66654V14.666H2.89319C3.16865 13.8853 3.67947 13.2093 4.35525 12.7311C5.03103 12.2529 5.8385 11.9961 6.66634 11.9961C7.49419 11.9961 8.30165 12.2529 8.97743 12.7311C9.65321 13.2093 10.164 13.8853 10.4395 14.666H18.8924C19.1679 13.8853 19.6787 13.2093 20.3545 12.7311C21.0303 12.2529 21.8377 11.9961 22.6656 11.9961C23.4934 11.9961 24.3009 12.2529 24.9766 12.7311C25.6524 13.2093 26.1633 13.8853 26.4387 14.666H26.6654V10.6661H22.6656C22.1975 10.6661 21.7377 10.5429 21.3323 10.3089C20.927 10.0748 20.5904 9.73823 20.3563 9.33288ZM23.9055 2.66654H22.6656V7.99961H26.6654V6.14103C26.6654 5.87767 26.5875 5.62019 26.4414 5.40107L25.0148 3.25984C24.893 3.0773 24.728 2.92763 24.5345 2.82414C24.341 2.72064 24.1249 2.6665 23.9055 2.66654ZM6.66634 2.66654H3.9998C3.67324 2.66658 3.35805 2.78647 3.11402 3.00347C2.86998 3.22048 2.71408 3.51949 2.67587 3.84381L2.66654 3.9998V6.66634H6.66634V2.66654ZM13.3327 2.66654H9.33288V6.66634H13.3327V2.66654ZM19.999 2.66654H15.9992V6.66634H19.999V2.66654Z" fill="#D85F66"/>
</svg>
