<svg width="32" height="32" viewBox="0 0 32 32" fill="none" xmlns="http://www.w3.org/2000/svg">
<path d="M19.9998 7.91406C20.3601 7.91406 20.6529 8.06603 20.9158 8.2666C21.1672 8.4584 21.445 8.73721 21.7683 9.06055L22.9392 10.2324L22.95 10.2422L22.9558 10.249C23.272 10.5651 23.5447 10.837 23.7332 11.084C23.9338 11.3469 24.0857 11.6396 24.0857 12C24.0857 12.3604 23.9338 12.6531 23.7332 12.916C23.6373 13.0416 23.5195 13.1734 23.3855 13.3145L22.9392 13.7676L12.7449 23.9619C12.6132 24.0936 12.4959 24.2147 12.365 24.3125L12.2283 24.4023C12.1327 24.4565 12.0316 24.4961 11.9246 24.5293L11.5837 24.6191L7.59644 25.6162C7.43224 25.6573 7.25377 25.7032 7.10522 25.7178C6.96973 25.731 6.75278 25.7299 6.5603 25.5889L6.48022 25.5205C6.27081 25.3111 6.26685 25.0493 6.28198 24.8945C6.29655 24.746 6.34252 24.5674 6.38354 24.4033L7.38062 20.416L7.47144 20.0752C7.5046 19.9684 7.54347 19.8678 7.59741 19.7725L7.68726 19.6357C7.7851 19.5046 7.90595 19.3868 8.03784 19.2549L18.2322 9.06055L18.6853 8.61426C18.8265 8.48018 18.959 8.36249 19.0847 8.2666C19.3475 8.06617 19.6396 7.91415 19.9998 7.91406Z" stroke="white"/>
<path d="M16.6667 10L20.6667 7.33337L24.6667 11.3334L22.0001 15.3334L16.6667 10Z" fill="white"/>
</svg>
